<?xml version="1.0" encoding="utf-8"?>
<!-- Generator: Adobe Illustrator 21.1.0, SVG Export Plug-In . SVG Version: 6.00 Build 0)  -->
<svg version="1.1" id="Layer_1" xmlns="http://www.w3.org/2000/svg" xmlns:xlink="http://www.w3.org/1999/xlink" x="0px" y="0px"
	 viewBox="0 0 24 24" style="enable-background:new 0 0 24 24;" xml:space="preserve">
<style type="text/css">
	.st0{fill:#3A546C;}
</style>
<g>
	<path class="st0" d="M22,0H2C0.9,0,0,0.9,0,2v20c0,1.1,0.9,2,2,2h11v-9h-3v-4h3V8.4c0-3.1,1.9-4.8,4.7-4.8c1.3,0,2.5,0.1,2.8,0.1V7
		l-1.9,0c-1.5,0-1.8,0.7-1.8,1.8V11h4.4l-1,4h-3.4v9H22c1.1,0,2-0.9,2-2V2C24,0.9,23.1,0,22,0z"/>
</g>
</svg>
