<svg version="1.1" xmlns="http://www.w3.org/2000/svg" xmlns:xlink="http://www.w3.org/1999/xlink" x="0px" y="0px" viewBox="0 0 64 64" xml:space="preserve" width="64" height="64"><g class="nc-icon-wrapper" fill="#444444"><g class="nc-loop_mouse-64"> <path fill="none" stroke="#444444" stroke-width="2" stroke-linecap="square" stroke-miterlimit="10" d="M38,62H26 c-6.6,0-12-5.4-12-12V14c0-6.6,5.4-12,12-12h12c6.6,0,12,5.4,12,12v36C50,56.6,44.6,62,38,62z" stroke-linejoin="miter"></path> <path data-color="color-2" fill="none" stroke="#444444" stroke-width="2" stroke-miterlimit="10" d="M32,27L32,27c-1.65686,0-3-1.34314-3-3 V14c0-1.65685,1.34314-3,3-3H32c1.65685,0,3,1.34314,3,3V24C35,25.65686,33.65686,27,32,27z" data-cap="butt" transform="translate(0 3.6758080003783107)" stroke-linecap="butt" stroke-linejoin="miter"></path> </g> <script>!function(){function t(t){this.element=t,this.wheel=this.element.getElementsByTagName("path")[1],this.animationId,this.start=null,this.init()}if(!window.requestAnimationFrame){var i=null;window.requestAnimationFrame=function(t,n){var e=(new Date).getTime();i||(i=e);var a=Math.max(0,16-(e-i)),o=window.setTimeout(function(){t(e+a)},a);return i=e+a,o}}t.prototype.init=function(){var t=this;this.animationId=window.requestAnimationFrame(t.triggerAnimation.bind(t))},t.prototype.reset=function(){var t=this;window.cancelAnimationFrame(t.animationId)},t.prototype.triggerAnimation=function(t){var i=this;this.start||(this.start=t);var n=t-this.start,e=Math.min(n/62.5,12),a=e>6?12-e:e;750>n||(this.start=this.start+750),this.wheel.setAttribute("transform","translate(0 "+a+")");if(document.documentElement.contains(this.element))window.requestAnimationFrame(i.triggerAnimation.bind(i))};var n=document.getElementsByClassName("nc-loop_mouse-64"),e=[];if(n)for(var a=0;n.length>a;a++)!function(i){e.push(new t(n[i]))}(a);document.addEventListener("visibilitychange",function(){"hidden"==document.visibilityState?e.forEach(function(t){t.reset()}):e.forEach(function(t){t.init()})})}();</script></g></svg>