<?xml version="1.0" encoding="iso-8859-1"?>
<!-- Generator: Adobe Illustrator 19.0.0, SVG Export Plug-In . SVG Version: 6.00 Build 0)  -->
<svg version="1.1" id="Capa_1" xmlns="http://www.w3.org/2000/svg" xmlns:xlink="http://www.w3.org/1999/xlink" x="0px" y="0px"
	 viewBox="0 0 512 512" style="enable-background:new 0 0 512 512;" xml:space="preserve">
<g>
	<g>
		<path d="M183.5,40.5C157.309,40.5,136,61.809,136,88v280h15v-13.893l65,65V424c0,17.921-14.58,32.5-32.5,32.5S151,441.921,151,424
			v-24h-15v24c0,26.191,21.309,47.5,47.5,47.5S231,450.191,231,424V88C231,61.809,209.691,40.5,183.5,40.5z M216,397.893l-65-65
			v-26.786l65,65V397.893z M216,349.893l-65-65V162.107l65,65V349.893z M216,205.893l-65-65v-26.786l65,65V205.893z M216,157.893
			l-65-65V88c0-17.921,14.58-32.5,32.5-32.5S216,70.079,216,88V157.893z"/>
	</g>
</g>
<g>
	<g>
		<path d="M47,361.223V103.5V64v-7H0v47h32v257.223C13.795,364.738,0,380.784,0,400v8h32v24h15v-24h32v-8
			C79,380.784,65.205,364.738,47,361.223z M15,89V72h17v17H15z M16.174,393c3.175-10,12.432-17,23.326-17s20.151,7,23.326,17H16.174
			z"/>
	</g>
</g>
<g>
	<g>
		<path d="M512,104V57h-47v7v39.5v257.723c-18.205,3.515-32,19.561-32,38.777v8h32v24h15v-24h32v-8
			c0-19.216-13.795-35.262-32-38.777V104H512z M480,72h17v17h-17V72z M495.826,393h-46.652c3.175-10,12.432-17,23.326-17
			S492.651,383,495.826,393z"/>
	</g>
</g>
<g>
	<g>
		<rect x="160" y="217" width="16" height="15"/>
	</g>
</g>
<g>
	<g>
		<rect x="160" y="265" width="16" height="15"/>
	</g>
</g>
<g>
	<g>
		<rect x="192" y="425" width="16" height="15"/>
	</g>
</g>
<g>
	<g>
		<path d="M375,240V88c0-26.191-21.309-47.5-47.5-47.5C301.309,40.5,280,61.809,280,88v336c0,26.191,21.309,47.5,47.5,47.5
			c26.191,0,47.5-21.309,47.5-47.5V272h-15v77.893l-65-65V162.107l65,65V240H375z M360,424c0,17.921-14.58,32.5-32.5,32.5
			c-17.92,0-32.5-14.579-32.5-32.5v-69.893l65,65V424z M360,371.107v26.786l-65-65v-26.786L360,371.107z M295,88
			c0-17.921,14.58-32.5,32.5-32.5c17.92,0,32.5,14.579,32.5,32.5v69.893l-65-65V88z M295,140.893v-26.786l65,65v26.786L295,140.893z
			"/>
	</g>
</g>
<g>
	<g>
		<rect x="304" y="217" width="16" height="15"/>
	</g>
</g>
<g>
	<g>
		<rect x="304" y="265" width="16" height="15"/>
	</g>
</g>
<g>
	<g>
		<rect x="336" y="425" width="16" height="15"/>
	</g>
</g>
<g>
</g>
<g>
</g>
<g>
</g>
<g>
</g>
<g>
</g>
<g>
</g>
<g>
</g>
<g>
</g>
<g>
</g>
<g>
</g>
<g>
</g>
<g>
</g>
<g>
</g>
<g>
</g>
<g>
</g>
</svg>
