<?xml version="1.0" encoding="utf-8"?>
<!-- Generator: Adobe Illustrator 21.1.0, SVG Export Plug-In . SVG Version: 6.00 Build 0)  -->
<svg version="1.1" id="Layer_1" xmlns="http://www.w3.org/2000/svg" xmlns:xlink="http://www.w3.org/1999/xlink" x="0px" y="0px"
	 viewBox="0 0 403.3 201.6" style="enable-background:new 0 0 403.3 201.6;" xml:space="preserve">
<style type="text/css">
	.st0{fill:#0F2E4A;}
	.st1{fill:#689DCC;}
	.st2{fill:#4B7DAB;}
</style>
<path class="st0" d="M100.8,0h201.6c55.8,0,100.8,45.1,100.8,100.8c0,55.8-45.1,100.8-100.8,100.8H100.8C45.1,201.6,0,156.6,0,100.8
	C0,45.1,45.1,0,100.8,0L100.8,0z M100.8,0"/>
<path class="st1" d="M100.8,25.2c41.9,0,75.6,33.7,75.6,75.6c0,41.9-33.7,75.6-75.6,75.6c-41.9,0-75.6-33.7-75.6-75.6
	C25.2,59.2,58.9,25.2,100.8,25.2L100.8,25.2z M100.8,25.2"/>
<path class="st2" d="M113.4,163.8c-41.9,0-75.6-33.7-75.6-75.6c0-17.6,6-34,16.4-46.6c-17.6,13.9-29,35.3-29,59.2
	c0,41.9,33.7,75.6,75.6,75.6c23.9,0,45.7-11.3,59.2-29C147.5,157.9,131.1,163.8,113.4,163.8L113.4,163.8z M113.4,163.8"/>
</svg>
