<?xml version="1.0" encoding="utf-8"?>
<!-- Generator: Adobe Illustrator 21.1.0, SVG Export Plug-In . SVG Version: 6.00 Build 0)  -->
<svg version="1.1" id="Слой_1" xmlns="http://www.w3.org/2000/svg" xmlns:xlink="http://www.w3.org/1999/xlink" x="0px" y="0px"
	 viewBox="0 0 100 100" style="enable-background:new 0 0 100 100;" xml:space="preserve">
<style type="text/css">
	.st0{fill:#909090;}
</style>
<path class="st0" d="M50,82.8c-2.4,0-4.3,1.9-4.3,4.3v8.5c0,2.4,1.9,4.3,4.3,4.3s4.3-1.9,4.3-4.3v-8.5C54.3,84.8,52.4,82.8,50,82.8z
	 M76.3,71.9c-1.1,0-2.2,0.4-3.1,1.3c-1.7,1.7-1.7,4.4,0,6.1l6,6c0.8,0.8,1.9,1.3,3.1,1.3s2.2-0.4,3.1-1.3c1.7-1.7,1.7-4.4,0-6.1
	l-6-6C78.5,72.4,77.4,71.9,76.3,71.9z M23.7,71.9c-1.1,0-2.2,0.4-3.1,1.3l-6,6c-1.7,1.7-1.7,4.4,0,6.1c0.8,0.8,1.9,1.3,3.1,1.3
	s2.2-0.4,3.1-1.3l6-6c1.7-1.7,1.7-4.4,0-6.1C25.9,72.4,24.8,71.9,23.7,71.9z M87.1,45.7c-2.4,0-4.3,1.9-4.3,4.3s1.9,4.3,4.3,4.3h8.5
	c2.4,0,4.3-1.9,4.3-4.3s-1.9-4.3-4.3-4.3H87.1z M4.3,45.7C1.9,45.7,0,47.6,0,50s1.9,4.3,4.3,4.3h8.5c2.4,0,4.3-1.9,4.3-4.3
	s-1.9-4.3-4.3-4.3H4.3z M50,32.4c9.7,0,17.6,7.9,17.6,17.6c0,9.7-7.9,17.6-17.6,17.6S32.4,59.7,32.4,50C32.4,40.3,40.3,32.4,50,32.4
	z M50,23.7c-14.5,0-26.3,11.8-26.3,26.3c0,14.5,11.8,26.3,26.3,26.3c14.5,0,26.3-11.8,26.3-26.3S64.5,23.7,50,23.7z M82.3,13.4
	c-1.1,0-2.2,0.4-3.1,1.3l-6,6c-1.7,1.7-1.7,4.4,0,6.1c0.8,0.8,1.9,1.3,3.1,1.3s2.2-0.4,3.1-1.3l6-6c1.7-1.7,1.7-4.4,0-6.1
	C84.5,13.8,83.4,13.4,82.3,13.4z M17.7,13.4c-1.1,0-2.2,0.4-3.1,1.3c-1.7,1.7-1.7,4.4,0,6.1l6,6c0.8,0.8,1.9,1.3,3.1,1.3
	c1.1,0,2.2-0.4,3.1-1.3c1.7-1.7,1.7-4.4,0-6.1l-6-6C19.9,13.8,18.8,13.4,17.7,13.4z M50,0c-2.4,0-4.3,1.9-4.3,4.3v8.5
	c0,2.4,1.9,4.3,4.3,4.3c2.4,0,4.3-1.9,4.3-4.3V4.3C54.3,1.9,52.4,0,50,0z"/>
</svg>
