<?xml version="1.0" encoding="utf-8"?>
<!-- Generator: Adobe Illustrator 21.1.0, SVG Export Plug-In . SVG Version: 6.00 Build 0)  -->
<svg version="1.1" id="Layer_1" xmlns="http://www.w3.org/2000/svg" xmlns:xlink="http://www.w3.org/1999/xlink" x="0px" y="0px"
	 viewBox="0 0 24 24" style="enable-background:new 0 0 24 24;" xml:space="preserve">
<style type="text/css">
	.st0{fill:#3A546C;}
</style>
<g>
	<path class="st0" d="M20.3,0H3.7C1.7,0,0,1.7,0,3.7v16.6c0,2,1.7,3.7,3.7,3.7h16.6c2,0,3.7-1.7,3.7-3.7V3.7C24,1.7,22.3,0,20.3,0z
		 M19.7,16.9h-2c-0.7,0-0.7-0.5-1.9-1.6c-1-1-1.5-1.1-1.7-1.1c-0.2,0-0.4,0.2-0.4,0.5v1.5c0,0.5-0.3,0.6-1.3,0.6
		c-1.8,0-3.7-1.1-5.2-3.1c-2.2-3-2.8-5.2-2.8-5.7c0-0.3,0.2-0.4,0.5-0.4h1.8c0.5,0,0.6,0.1,0.8,0.6c0.8,2.4,2.3,4.5,2.9,4.5
		c0.2,0,0.3-0.2,0.3-0.7V9.7c0-1.2-0.7-1.3-0.7-1.7c0-0.2,0.1-0.3,0.4-0.3h2.9c0.4,0,0.4,0.1,0.4,0.6v3.3c0,0.4,0.1,0.5,0.2,0.5
		c0.2,0,0.4-0.1,0.8-0.5c1.2-1.3,2.2-3.4,2.2-3.4c0.1-0.3,0.3-0.4,0.7-0.4c0.6,0,1.8,0,1.8,0c0.4,0,0.5,0.2,0.4,0.5
		c-0.2,1-2.3,3.9-2.3,3.9c-0.2,0.3-0.3,0.5,0,0.8c0.2,0.2,0.8,0.8,1.2,1.3c0.9,1,1.5,1.8,1.5,2.2C20.1,16.8,19.9,16.9,19.7,16.9z"/>
</g>
</svg>
